<svg width="48" height="48" viewBox="0 0 48 48" fill="none" xmlns="http://www.w3.org/2000/svg">
<circle cx="24" cy="24" r="24" transform="rotate(180 24 24)" fill="#4ABEFF"/>
<path d="M31.7046 24.7135L19.7147 36.706C19.3218 37.0987 18.6858 37.098 18.2936 36.704C17.9018 36.3099 17.9028 35.6717 18.2957 35.2787L29.5719 24L18.2953 12.7213C17.9024 12.3282 17.9014 11.6904 18.2932 11.2963C18.4898 11.0988 18.7474 11 19.0049 11C19.2618 11 19.5184 11.0981 19.7146 11.2943L31.7046 23.2865C31.8938 23.4753 32 23.7322 32 24C32 24.2677 31.8935 24.5243 31.7046 24.7135Z" fill="white"/>
</svg>
