<svg width="393" height="57" viewBox="0 0 393 57" fill="none" xmlns="http://www.w3.org/2000/svg">
<path d="M65.758 16.9H74.728C76.888 16.9 78.538 17.44 79.678 18.52C80.818 19.58 81.388 21.13 81.388 23.17C81.388 25.21 80.818 26.77 79.678 27.85C78.538 28.91 76.888 29.44 74.728 29.44H67.048V35.65C67.008 36.65 66.538 37.16 65.638 37.18C64.698 37.14 64.218 36.63 64.198 35.65V18.43C64.218 17.45 64.738 16.94 65.758 16.9ZM67.048 26.83H74.458C75.758 26.83 76.748 26.52 77.428 25.9C78.128 25.28 78.478 24.37 78.478 23.17C78.478 21.97 78.128 21.06 77.428 20.44C76.748 19.82 75.758 19.51 74.458 19.51H67.048V26.83ZM85.1734 15.82C86.0134 15.84 86.4534 16.31 86.4934 17.23V35.77C86.4534 36.69 86.0134 37.16 85.1734 37.18C84.3534 37.16 83.9234 36.69 83.8834 35.77V17.23C83.9234 16.31 84.3534 15.84 85.1734 15.82ZM103.472 22.48C104.332 22.52 104.772 23 104.792 23.92V35.77C104.752 36.67 104.312 37.14 103.472 37.18C102.652 37.16 102.222 36.69 102.182 35.77V34.96H102.122C100.902 36.56 99.0916 37.36 96.6916 37.36C94.5916 37.36 92.8716 36.67 91.5316 35.29C90.9716 34.63 90.5416 33.93 90.2416 33.19C89.9416 32.45 89.7616 31.9 89.7016 31.54C89.6616 31.16 89.6216 30.59 89.5816 29.83C89.5816 28.73 89.7916 27.59 90.2116 26.41C90.6316 25.27 91.4416 24.29 92.6416 23.47C93.8616 22.63 95.2116 22.24 96.6916 22.3C99.0916 22.3 100.902 23.1 102.122 24.7H102.182V23.92C102.222 22.98 102.652 22.5 103.472 22.48ZM97.1716 34.93C98.6516 34.93 99.8516 34.46 100.772 33.52C101.712 32.56 102.182 31.33 102.182 29.83C102.182 28.33 101.712 27.11 100.772 26.17C99.8516 25.21 98.6516 24.73 97.1716 24.73C95.7116 24.73 94.5216 25.21 93.6016 26.17C92.7016 27.11 92.2516 28.33 92.2516 29.83C92.2516 31.33 92.7016 32.56 93.6016 33.52C94.5216 34.46 95.7116 34.93 97.1716 34.93ZM121.692 33.97C121.692 34.25 121.602 34.51 121.422 34.75C121.122 35.13 120.742 35.5 120.282 35.86C118.942 36.86 117.352 37.36 115.512 37.36C113.252 37.36 111.412 36.67 109.992 35.29C109.372 34.61 108.902 33.91 108.582 33.19C108.262 32.47 108.072 31.91 108.012 31.51C107.952 31.09 107.912 30.53 107.892 29.83C107.892 28.65 108.122 27.52 108.582 26.44C109.042 25.3 109.912 24.31 111.192 23.47C112.472 22.63 113.912 22.24 115.512 22.3C117.752 22.3 119.612 23.04 121.092 24.52C121.312 24.78 121.422 25.08 121.422 25.42C121.382 26.18 120.972 26.59 120.192 26.65C119.852 26.65 119.552 26.53 119.292 26.29C118.232 25.25 116.972 24.73 115.512 24.73C114.052 24.73 112.862 25.21 111.942 26.17C111.022 27.11 110.562 28.33 110.562 29.83C110.562 31.33 111.022 32.56 111.942 33.52C112.862 34.46 114.052 34.93 115.512 34.93C117.172 34.93 118.482 34.36 119.442 33.22C119.642 32.94 119.972 32.78 120.432 32.74C121.232 32.76 121.652 33.17 121.692 33.97ZM138.8 29.14V29.2C138.8 29.72 138.65 30.13 138.35 30.43C138.05 30.71 137.64 30.85 137.12 30.85H126.59C126.79 32.11 127.33 33.11 128.21 33.85C129.11 34.57 130.24 34.93 131.6 34.93C133.34 34.93 134.68 34.36 135.62 33.22C135.88 32.9 136.22 32.74 136.64 32.74C137.44 32.76 137.86 33.17 137.9 33.97C137.9 34.25 137.81 34.51 137.63 34.75C136.21 36.49 134.2 37.36 131.6 37.36C129.26 37.36 127.38 36.67 125.96 35.29C125.48 34.79 125.09 34.3 124.79 33.82C124.49 33.34 124.27 32.83 124.13 32.29C124.01 31.73 123.94 31.34 123.92 31.12C123.9 30.88 123.87 30.45 123.83 29.83C123.83 28.65 124.06 27.52 124.52 26.44C124.98 25.3 125.85 24.31 127.13 23.47C128.41 22.63 129.85 22.24 131.45 22.3C133.55 22.3 135.3 22.96 136.7 24.28C138.1 25.6 138.8 27.22 138.8 29.14ZM134.57 25.78C133.71 25.08 132.67 24.73 131.45 24.73C130.23 24.73 129.18 25.08 128.3 25.78C127.44 26.46 126.89 27.37 126.65 28.51H136.25C136.01 27.37 135.45 26.46 134.57 25.78ZM161.919 22.48C162.779 22.52 163.219 23 163.239 23.92V35.77C163.199 36.67 162.759 37.14 161.919 37.18C161.099 37.16 160.669 36.69 160.629 35.77V34.96H160.569C159.349 36.56 157.539 37.36 155.139 37.36C153.039 37.36 151.319 36.67 149.979 35.29C149.419 34.63 148.989 33.93 148.689 33.19C148.389 32.45 148.209 31.9 148.149 31.54C148.109 31.16 148.069 30.59 148.029 29.83C148.029 28.73 148.239 27.59 148.659 26.41C149.079 25.27 149.889 24.29 151.089 23.47C152.309 22.63 153.659 22.24 155.139 22.3C157.539 22.3 159.349 23.1 160.569 24.7H160.629V23.92C160.669 22.98 161.099 22.5 161.919 22.48ZM155.619 34.93C157.099 34.93 158.299 34.46 159.219 33.52C160.159 32.56 160.629 31.33 160.629 29.83C160.629 28.33 160.159 27.11 159.219 26.17C158.299 25.21 157.099 24.73 155.619 24.73C154.159 24.73 152.969 25.21 152.049 26.17C151.149 27.11 150.699 28.33 150.699 29.83C150.699 31.33 151.149 32.56 152.049 33.52C152.969 34.46 154.159 34.93 155.619 34.93ZM174.739 22.3C176.759 22.3 178.289 22.87 179.329 24.01C180.389 25.15 180.919 26.81 180.919 28.99V35.77C180.879 36.67 180.439 37.14 179.599 37.18C178.779 37.16 178.349 36.69 178.309 35.77V29.26C178.309 26.24 176.909 24.73 174.109 24.73C172.709 24.73 171.599 25.18 170.779 26.08C169.979 26.98 169.579 28.22 169.579 29.8V35.77C169.539 36.69 169.099 37.16 168.259 37.18C167.439 37.16 167.009 36.69 166.969 35.77V23.89C167.009 22.97 167.439 22.5 168.259 22.48C169.099 22.5 169.539 22.97 169.579 23.89V24.61H169.639C170.779 23.07 172.479 22.3 174.739 22.3ZM190.714 29.83C190.714 28.65 190.944 27.52 191.404 26.44C191.864 25.3 192.734 24.31 194.014 23.47C195.294 22.63 196.734 22.24 198.334 22.3C200.614 22.3 202.454 23 203.854 24.4C204.334 24.92 204.724 25.42 205.024 25.9C205.324 26.36 205.534 26.87 205.654 27.43C205.794 27.97 205.874 28.36 205.894 28.6C205.914 28.82 205.944 29.23 205.984 29.83C205.984 30.97 205.754 32.11 205.294 33.25C204.814 34.39 203.924 35.38 202.624 36.22C201.344 37.06 199.914 37.44 198.334 37.36C196.074 37.36 194.234 36.67 192.814 35.29C192.194 34.61 191.724 33.91 191.404 33.19C191.084 32.47 190.894 31.91 190.834 31.51C190.774 31.09 190.734 30.53 190.714 29.83ZM194.764 26.17C193.844 27.11 193.384 28.33 193.384 29.83C193.384 31.33 193.844 32.56 194.764 33.52C195.684 34.46 196.874 34.93 198.334 34.93C199.814 34.93 201.014 34.46 201.934 33.52C202.854 32.56 203.314 31.33 203.314 29.83C203.314 28.33 202.854 27.11 201.934 26.17C201.014 25.21 199.814 24.73 198.334 24.73C196.874 24.73 195.684 25.21 194.764 26.17ZM216.629 22.39C217.489 22.43 217.929 22.87 217.949 23.71C217.929 24.53 217.489 24.96 216.629 25C213.329 25 211.679 26.91 211.679 30.73V35.77C211.639 36.69 211.199 37.16 210.359 37.18C209.539 37.16 209.109 36.69 209.069 35.77V23.92C209.109 22.98 209.539 22.5 210.359 22.48C211.199 22.5 211.639 22.98 211.679 23.92V24.97H211.739C212.759 23.25 214.389 22.39 216.629 22.39ZM232.378 15.82C233.238 15.86 233.678 16.34 233.698 17.26V35.77C233.658 36.67 233.218 37.14 232.378 37.18C231.558 37.16 231.128 36.69 231.088 35.77V34.96H231.028C229.808 36.56 227.998 37.36 225.598 37.36C223.498 37.36 221.778 36.67 220.438 35.29C219.878 34.63 219.448 33.93 219.148 33.19C218.848 32.45 218.668 31.9 218.608 31.54C218.568 31.16 218.528 30.59 218.488 29.83C218.488 28.73 218.698 27.59 219.118 26.41C219.538 25.27 220.348 24.29 221.548 23.47C222.768 22.63 224.118 22.24 225.598 22.3C227.998 22.3 229.808 23.1 231.028 24.7H231.088V17.26C231.128 16.32 231.558 15.84 232.378 15.82ZM226.078 34.93C227.558 34.93 228.758 34.46 229.678 33.52C230.618 32.56 231.088 31.33 231.088 29.83C231.088 28.33 230.618 27.11 229.678 26.17C228.758 25.21 227.558 24.73 226.078 24.73C224.618 24.73 223.428 25.21 222.508 26.17C221.608 27.11 221.158 28.33 221.158 29.83C221.158 31.33 221.608 32.56 222.508 33.52C223.428 34.46 224.618 34.93 226.078 34.93ZM251.768 29.14V29.2C251.768 29.72 251.618 30.13 251.318 30.43C251.018 30.71 250.608 30.85 250.088 30.85H239.558C239.758 32.11 240.298 33.11 241.178 33.85C242.078 34.57 243.208 34.93 244.568 34.93C246.308 34.93 247.648 34.36 248.588 33.22C248.848 32.9 249.188 32.74 249.608 32.74C250.408 32.76 250.828 33.17 250.868 33.97C250.868 34.25 250.778 34.51 250.598 34.75C249.178 36.49 247.168 37.36 244.568 37.36C242.228 37.36 240.348 36.67 238.928 35.29C238.448 34.79 238.058 34.3 237.758 33.82C237.458 33.34 237.238 32.83 237.098 32.29C236.978 31.73 236.908 31.34 236.888 31.12C236.868 30.88 236.838 30.45 236.798 29.83C236.798 28.65 237.028 27.52 237.488 26.44C237.948 25.3 238.818 24.31 240.098 23.47C241.378 22.63 242.818 22.24 244.418 22.3C246.518 22.3 248.268 22.96 249.668 24.28C251.068 25.6 251.768 27.22 251.768 29.14ZM247.538 25.78C246.678 25.08 245.638 24.73 244.418 24.73C243.198 24.73 242.148 25.08 241.268 25.78C240.408 26.46 239.858 27.37 239.618 28.51H249.218C248.978 27.37 248.418 26.46 247.538 25.78ZM262.127 22.39C262.987 22.43 263.427 22.87 263.447 23.71C263.427 24.53 262.987 24.96 262.127 25C258.827 25 257.177 26.91 257.177 30.73V35.77C257.137 36.69 256.697 37.16 255.857 37.18C255.037 37.16 254.607 36.69 254.567 35.77V23.92C254.607 22.98 255.037 22.5 255.857 22.48C256.697 22.5 257.137 22.98 257.177 23.92V24.97H257.237C258.257 23.25 259.887 22.39 262.127 22.39Z" fill="white"/>
<path d="M28.5883 2.67162C29.4528 1.02867 31.1565 0 33.0131 0H384.719C388.481 0 390.896 3.99884 389.144 7.32837L364.412 54.3284C363.547 55.9713 361.843 57 359.987 57H8.28107C4.51869 57 2.10424 53.0012 3.85628 49.6716L28.5883 2.67162Z" fill="#4ABEFF"/>
<circle cx="320.5" cy="29.5" r="19.5" fill="white"/>
<path d="M329.696 28.7618L322.835 21.9001C322.639 21.7042 322.378 21.5967 322.099 21.5967C321.821 21.5967 321.56 21.7043 321.364 21.9001L320.741 22.5232C320.545 22.7188 320.438 22.98 320.438 23.2585C320.438 23.5368 320.545 23.8068 320.741 24.0024L324.744 28.0141H312.026C311.453 28.0141 311 28.463 311 29.0366V29.9175C311 30.4911 311.453 30.9852 312.026 30.9852H324.789L320.741 35.0194C320.545 35.2152 320.438 35.4693 320.438 35.7479C320.438 36.0261 320.545 36.2839 320.741 36.4796L321.364 37.1007C321.56 37.2966 321.821 37.4033 322.1 37.4033C322.378 37.4033 322.639 37.2952 322.835 37.0993L329.696 30.2377C329.893 30.0413 330.001 29.779 330 29.5002C330.001 29.2204 329.893 28.958 329.696 28.7618Z" fill="#3E3E3E"/>
</svg>
