<svg width="222" height="64" viewBox="0 0 222 64" fill="none" xmlns="http://www.w3.org/2000/svg">
<path d="M76.0664 47.8404H84.8684C85.0964 47.8404 85.2104 47.9424 85.2104 48.1464C85.2104 48.3624 85.0964 48.4704 84.8684 48.4704H76.3724V53.7624H83.5544C83.7944 53.7624 83.9144 53.8644 83.9144 54.0684C83.9144 54.2604 83.7944 54.3684 83.5544 54.3924H76.3724V59.6304C76.3724 59.8704 76.2584 59.9964 76.0304 60.0084C75.8264 59.9964 75.7124 59.8704 75.6884 59.6304V48.2184C75.7124 47.9904 75.8384 47.8644 76.0664 47.8404ZM87.1386 47.1924C87.3546 47.2164 87.4626 47.3424 87.4626 47.5704V59.6304C87.4626 59.8584 87.3546 59.9844 87.1386 60.0084C86.9226 59.9844 86.8146 59.8584 86.8146 59.6304V47.5704C86.8146 47.3424 86.9226 47.2164 87.1386 47.1924ZM89.5989 55.6344C89.5989 54.9744 89.7309 54.2964 89.9949 53.6004C90.2589 52.9164 90.7749 52.3284 91.5429 51.8364C92.3109 51.3324 93.1569 51.0984 94.0809 51.1344C95.4009 51.1344 96.4749 51.5484 97.3029 52.3764C97.6749 52.7724 97.9509 53.1924 98.1309 53.6364C98.3229 54.0804 98.4309 54.4104 98.4549 54.6264C98.4909 54.8304 98.5209 55.1664 98.5449 55.6344C98.5449 56.3424 98.4069 57.0204 98.1309 57.6684C97.8789 58.3404 97.3689 58.9284 96.6009 59.4324C95.8449 59.9244 95.0049 60.1524 94.0809 60.1164C92.7729 60.1164 91.6929 59.7024 90.8409 58.8744C90.4689 58.4784 90.1869 58.0644 89.9949 57.6324C89.8149 57.1884 89.7069 56.8644 89.6709 56.6604C89.6469 56.4444 89.6229 56.1024 89.5989 55.6344ZM90.2649 55.6344C90.2649 56.7864 90.6189 57.7224 91.3269 58.4424C92.0349 59.1504 92.9529 59.5044 94.0809 59.5044C95.1969 59.5044 96.1089 59.1504 96.8169 58.4424C97.5249 57.7224 97.8789 56.7864 97.8789 55.6344C97.8789 54.4704 97.5249 53.5344 96.8169 52.8264C96.1209 52.1064 95.2089 51.7464 94.0809 51.7464C92.9529 51.7464 92.0349 52.1064 91.3269 52.8264C90.6189 53.5344 90.2649 54.4704 90.2649 55.6344ZM100.234 55.6344C100.234 54.9744 100.366 54.2964 100.63 53.6004C100.894 52.9164 101.41 52.3284 102.178 51.8364C102.946 51.3324 103.792 51.0984 104.716 51.1344C106.036 51.1344 107.11 51.5484 107.938 52.3764C108.31 52.7724 108.586 53.1924 108.766 53.6364C108.958 54.0804 109.066 54.4104 109.09 54.6264C109.126 54.8304 109.156 55.1664 109.18 55.6344C109.18 56.3424 109.042 57.0204 108.766 57.6684C108.514 58.3404 108.004 58.9284 107.236 59.4324C106.48 59.9244 105.64 60.1524 104.716 60.1164C103.408 60.1164 102.328 59.7024 101.476 58.8744C101.104 58.4784 100.822 58.0644 100.63 57.6324C100.45 57.1884 100.342 56.8644 100.306 56.6604C100.282 56.4444 100.258 56.1024 100.234 55.6344ZM100.9 55.6344C100.9 56.7864 101.254 57.7224 101.962 58.4424C102.67 59.1504 103.588 59.5044 104.716 59.5044C105.832 59.5044 106.744 59.1504 107.452 58.4424C108.16 57.7224 108.514 56.7864 108.514 55.6344C108.514 54.4704 108.16 53.5344 107.452 52.8264C106.756 52.1064 105.844 51.7464 104.716 51.7464C103.588 51.7464 102.67 52.1064 101.962 52.8264C101.254 53.5344 100.9 54.4704 100.9 55.6344ZM115.476 51.1884C115.68 51.1884 115.794 51.2964 115.818 51.5124C115.794 51.7164 115.68 51.8184 115.476 51.8184C114.348 51.8184 113.484 52.1904 112.884 52.9344C112.788 53.0664 112.698 53.1984 112.614 53.3304C112.542 53.4504 112.476 53.5764 112.416 53.7084C112.356 53.8404 112.302 53.9604 112.254 54.0684C112.218 54.1644 112.182 54.2904 112.146 54.4464C112.122 54.6024 112.098 54.7164 112.074 54.7884C112.062 54.8604 112.044 54.9804 112.02 55.1484C112.008 55.3164 112.002 55.4244 112.002 55.4724C112.002 55.5204 111.996 55.6404 111.984 55.8324C111.972 56.0124 111.966 56.1144 111.966 56.1384V59.6304C111.966 59.8584 111.858 59.9844 111.642 60.0084C111.426 59.9844 111.318 59.8584 111.318 59.6304V51.6204C111.318 51.3804 111.426 51.2544 111.642 51.2424C111.858 51.2544 111.966 51.3804 111.966 51.6204V53.3304H112.002C112.638 51.9024 113.796 51.1884 115.476 51.1884ZM122.016 47.8404H127.902C129.138 47.8404 130.08 48.1464 130.728 48.7584C131.376 49.3584 131.7 50.2344 131.7 51.3864C131.7 52.5384 131.376 53.4204 130.728 54.0324C130.08 54.6324 129.138 54.9324 127.902 54.9324H122.322V59.6304C122.322 59.8704 122.208 59.9964 121.98 60.0084C121.776 59.9964 121.662 59.8704 121.638 59.6304V48.2184C121.662 47.9904 121.788 47.8644 122.016 47.8404ZM122.322 54.3024H127.866C129.954 54.3024 130.998 53.3304 130.998 51.3864C130.998 49.4424 129.954 48.4704 127.866 48.4704H122.322V54.3024ZM133.756 47.1924C133.972 47.2164 134.08 47.3424 134.08 47.5704V59.6304C134.08 59.8584 133.972 59.9844 133.756 60.0084C133.54 59.9844 133.432 59.8584 133.432 59.6304V47.5704C133.432 47.3424 133.54 47.2164 133.756 47.1924ZM144.856 51.2424C145.06 51.2664 145.162 51.3924 145.162 51.6204V59.6304C145.162 59.8584 145.06 59.9844 144.856 60.0084C144.652 59.9964 144.538 59.8704 144.514 59.6304V57.9924H144.478C144.322 58.3164 144.106 58.6164 143.83 58.8924C143.59 59.1564 143.218 59.4264 142.714 59.7024C142.222 59.9784 141.526 60.1164 140.626 60.1164C139.33 60.1164 138.268 59.7024 137.44 58.8744C137.08 58.4784 136.804 58.0704 136.612 57.6504C136.432 57.2184 136.324 56.8824 136.288 56.6424C136.252 56.3904 136.228 56.0544 136.216 55.6344C136.216 54.9744 136.348 54.2964 136.612 53.6004C136.888 52.9044 137.392 52.3104 138.124 51.8184C138.868 51.3264 139.702 51.0984 140.626 51.1344C141.526 51.1344 142.222 51.2724 142.714 51.5484C143.542 52.0164 144.13 52.5864 144.478 53.2584H144.514V51.6204C144.538 51.3804 144.652 51.2544 144.856 51.2424ZM137.944 58.4424C138.652 59.1504 139.57 59.5044 140.698 59.5044C141.826 59.5044 142.744 59.1504 143.452 58.4424C144.16 57.7224 144.514 56.7864 144.514 55.6344C144.514 54.4824 144.16 53.5464 143.452 52.8264C142.744 52.1064 141.826 51.7464 140.698 51.7464C139.57 51.7464 138.652 52.1064 137.944 52.8264C137.236 53.5344 136.882 54.4704 136.882 55.6344C136.882 56.7864 137.236 57.7224 137.944 58.4424ZM152.006 51.1344C153.242 51.1344 154.178 51.4764 154.814 52.1604C155.462 52.8444 155.786 53.8404 155.786 55.1484V59.6304C155.786 59.8584 155.678 59.9844 155.462 60.0084C155.27 59.9844 155.162 59.8584 155.138 59.6304V55.1844C155.138 52.8924 154.058 51.7464 151.898 51.7464C150.854 51.7464 150.008 52.0944 149.36 52.7904C148.724 53.4864 148.406 54.4164 148.406 55.5804V59.6304C148.406 59.8584 148.298 59.9844 148.082 60.0084C147.866 59.9844 147.758 59.8584 147.758 59.6304V51.6204C147.758 51.3804 147.866 51.2544 148.082 51.2424C148.298 51.2544 148.406 51.3804 148.406 51.6204V53.1684H148.442C148.61 52.8444 148.808 52.5564 149.036 52.3044C149.252 52.0644 149.594 51.8064 150.062 51.5304C150.506 51.2664 151.154 51.1344 152.006 51.1344ZM158.273 53.7264C158.249 54.2544 158.411 54.6084 158.759 54.7884C159.311 55.0524 160.175 55.1964 161.351 55.2204C162.779 55.2444 163.775 55.4304 164.339 55.7784C164.903 56.1264 165.185 56.7084 165.185 57.5244C165.185 57.9324 165.101 58.3044 164.933 58.6404C164.777 58.9284 164.447 59.2524 163.943 59.6124C163.463 59.9484 162.617 60.1164 161.405 60.1164C159.665 60.1164 158.387 59.6724 157.571 58.7844C157.511 58.7244 157.481 58.6464 157.481 58.5504C157.493 58.3584 157.595 58.2504 157.787 58.2264C157.919 58.2264 158.009 58.2684 158.057 58.3524C158.753 59.1204 159.863 59.5044 161.387 59.5044C162.395 59.5044 163.169 59.3364 163.709 59.0004C164.261 58.6524 164.537 58.1604 164.537 57.5244C164.549 56.9484 164.369 56.5644 163.997 56.3724C163.385 56.0484 162.491 55.8804 161.315 55.8684C159.947 55.8444 158.987 55.6704 158.435 55.3464C157.895 55.0224 157.625 54.4824 157.625 53.7264C157.625 52.9224 157.955 52.2924 158.615 51.8364C159.287 51.3684 160.193 51.1344 161.333 51.1344C162.761 51.1344 163.877 51.5244 164.681 52.3044C164.753 52.3524 164.789 52.4364 164.789 52.5564C164.765 52.7604 164.663 52.8684 164.483 52.8804C164.387 52.8804 164.303 52.8444 164.231 52.7724C163.523 52.0884 162.563 51.7464 161.351 51.7464C160.403 51.7464 159.653 51.9264 159.101 52.2864C158.549 52.6344 158.273 53.1144 158.273 53.7264ZM170.845 53.8704C170.845 52.4664 171.175 51.2664 171.835 50.2704C172.039 49.9464 172.351 49.5744 172.771 49.1544C173.191 48.7104 173.785 48.3444 174.553 48.0564C175.321 47.7684 176.149 47.6244 177.037 47.6244C177.961 47.6244 178.795 47.7744 179.539 48.0744C180.667 48.5184 181.561 49.2504 182.221 50.2704C182.881 51.2664 183.211 52.4664 183.211 53.8704C183.211 55.2504 182.881 56.4564 182.221 57.4884C181.981 57.8484 181.669 58.2204 181.285 58.6044C180.853 59.0364 180.253 59.3964 179.485 59.6844C178.717 59.9724 177.901 60.1164 177.037 60.1164C176.101 60.1164 175.261 59.9664 174.517 59.6664C173.401 59.2344 172.507 58.5084 171.835 57.4884C171.175 56.4564 170.845 55.2504 170.845 53.8704ZM172.411 50.6304C171.835 51.6144 171.547 52.6944 171.547 53.8704C171.547 55.0464 171.835 56.1264 172.411 57.1104C172.603 57.3984 172.879 57.7344 173.239 58.1184C173.635 58.5144 174.169 58.8444 174.841 59.1084C175.525 59.3604 176.257 59.4864 177.037 59.4864C178.165 59.5104 179.143 59.2644 179.971 58.7484C180.799 58.2204 181.351 57.6744 181.627 57.1104C182.215 56.1864 182.509 55.1064 182.509 53.8704C182.509 52.6344 182.215 51.5544 181.627 50.6304C181.351 50.0664 180.799 49.5264 179.971 49.0104C179.143 48.4944 178.165 48.2424 177.037 48.2544C176.233 48.2544 175.489 48.3924 174.805 48.6684C173.797 49.0644 172.999 49.7184 172.411 50.6304ZM189.588 51.1344C190.824 51.1344 191.76 51.4764 192.396 52.1604C193.044 52.8444 193.368 53.8404 193.368 55.1484V59.6304C193.368 59.8584 193.26 59.9844 193.044 60.0084C192.852 59.9844 192.744 59.8584 192.72 59.6304V55.1844C192.72 52.8924 191.64 51.7464 189.48 51.7464C188.436 51.7464 187.59 52.0944 186.942 52.7904C186.306 53.4864 185.988 54.4164 185.988 55.5804V59.6304C185.988 59.8584 185.88 59.9844 185.664 60.0084C185.448 59.9844 185.34 59.8584 185.34 59.6304V51.6204C185.34 51.3804 185.448 51.2544 185.664 51.2424C185.88 51.2544 185.988 51.3804 185.988 51.6204V53.1684H186.024C186.192 52.8444 186.39 52.5564 186.618 52.3044C186.834 52.0644 187.176 51.8064 187.644 51.5304C188.088 51.2664 188.736 51.1344 189.588 51.1344ZM196.035 47.1924C196.251 47.2164 196.359 47.3424 196.359 47.5704V59.6304C196.359 59.8584 196.251 59.9844 196.035 60.0084C195.819 59.9844 195.711 59.8584 195.711 59.6304V47.5704C195.711 47.3424 195.819 47.2164 196.035 47.1924ZM199.269 48.1644C199.557 48.1764 199.713 48.3384 199.737 48.6504C199.713 48.9624 199.557 49.1244 199.269 49.1364C198.981 49.1244 198.825 48.9624 198.801 48.6504C198.825 48.3384 198.981 48.1764 199.269 48.1644ZM199.269 51.2424C199.485 51.2544 199.593 51.3804 199.593 51.6204V59.6304C199.593 59.8584 199.485 59.9844 199.269 60.0084C199.053 59.9844 198.945 59.8584 198.945 59.6304V51.6204C198.945 51.3804 199.053 51.2544 199.269 51.2424ZM206.428 51.1344C207.664 51.1344 208.6 51.4764 209.236 52.1604C209.884 52.8444 210.208 53.8404 210.208 55.1484V59.6304C210.208 59.8584 210.1 59.9844 209.884 60.0084C209.692 59.9844 209.584 59.8584 209.56 59.6304V55.1844C209.56 52.8924 208.48 51.7464 206.32 51.7464C205.276 51.7464 204.43 52.0944 203.782 52.7904C203.146 53.4864 202.828 54.4164 202.828 55.5804V59.6304C202.828 59.8584 202.72 59.9844 202.504 60.0084C202.288 59.9844 202.18 59.8584 202.18 59.6304V51.6204C202.18 51.3804 202.288 51.2544 202.504 51.2424C202.72 51.2544 202.828 51.3804 202.828 51.6204V53.1684H202.864C203.032 52.8444 203.23 52.5564 203.458 52.3044C203.674 52.0644 204.016 51.8064 204.484 51.5304C204.928 51.2664 205.576 51.1344 206.428 51.1344ZM216.583 51.1344C217.891 51.1344 218.947 51.5364 219.751 52.3404C219.979 52.5804 220.171 52.8324 220.327 53.0964C220.495 53.3484 220.615 53.5524 220.687 53.7084C220.759 53.8644 220.819 54.0864 220.867 54.3744C220.927 54.6624 220.957 54.8424 220.957 54.9144C220.957 54.9744 220.969 55.1544 220.993 55.4544C220.981 55.6824 220.855 55.8084 220.615 55.8324H212.767C212.815 56.9364 213.193 57.8244 213.901 58.4964C214.621 59.1684 215.551 59.5044 216.691 59.5044C216.991 59.5044 217.309 59.4744 217.645 59.4144C218.557 59.1984 219.265 58.7604 219.769 58.1004C219.865 57.9924 219.961 57.9444 220.057 57.9564C220.249 57.9684 220.357 58.0704 220.381 58.2624C220.393 58.3224 220.363 58.4004 220.291 58.4964C220.063 58.7844 219.835 59.0124 219.607 59.1804C218.779 59.8044 217.807 60.1164 216.691 60.1164C215.323 60.1164 214.213 59.7024 213.361 58.8744C213.073 58.5744 212.839 58.2864 212.659 58.0104C212.479 57.7224 212.353 57.4104 212.281 57.0744C212.209 56.7384 212.167 56.5104 212.155 56.3904C212.143 56.2704 212.125 56.0184 212.101 55.6344C212.101 54.9744 212.233 54.2964 212.497 53.6004C212.761 52.9164 213.277 52.3284 214.045 51.8364C214.813 51.3324 215.659 51.0984 216.583 51.1344ZM219.193 52.7004C218.509 52.0644 217.639 51.7464 216.583 51.7464C215.527 51.7464 214.651 52.0644 213.955 52.7004C213.271 53.3364 212.881 54.1764 212.785 55.2204H220.363C220.267 54.1644 219.877 53.3244 219.193 52.7004Z" fill="white"/>
<path d="M75.497 4.44039H91.153C92.0143 4.44039 92.6857 4.66839 93.167 5.12439C93.6484 5.58039 93.889 6.21372 93.889 7.02439C93.889 7.83506 93.6484 8.46839 93.167 8.92439C92.6857 9.38039 92.0143 9.60839 91.153 9.60839H78.119V15.0424H88.341C89.2023 15.0424 89.8737 15.2704 90.355 15.7264C90.8617 16.1824 91.115 16.8284 91.115 17.6644C91.115 18.4751 90.8617 19.1084 90.355 19.5644C89.8737 19.9951 89.2023 20.2104 88.341 20.2104H78.119V27.1264C78.119 28.0637 77.8657 28.7984 77.359 29.3304C76.8777 29.8624 76.1937 30.1284 75.307 30.1284C74.395 30.1284 73.6857 29.8624 73.179 29.3304C72.6977 28.7984 72.457 28.0637 72.457 27.1264V7.48039C72.457 6.51772 72.723 5.77039 73.255 5.23839C73.787 4.70639 74.5343 4.44039 75.497 4.44039ZM98.8608 3.07239C99.6968 3.07239 100.343 3.32572 100.799 3.83239C101.255 4.31372 101.483 4.98506 101.483 5.84639V27.3544C101.483 28.2157 101.255 28.8997 100.799 29.4064C100.343 29.8877 99.6968 30.1284 98.8608 30.1284C98.0501 30.1284 97.4168 29.8877 96.9608 29.4064C96.5048 28.8997 96.2768 28.2157 96.2768 27.3544V5.84639C96.2768 4.98506 96.5048 4.31372 96.9608 3.83239C97.4168 3.32572 98.0501 3.07239 98.8608 3.07239ZM104.759 20.7804C104.759 19.3364 105.063 17.8924 105.671 16.4484C106.253 15.0044 107.381 13.7504 109.053 12.6864C110.725 11.6224 112.587 11.1284 114.639 11.2044C117.628 11.2044 120.009 12.0911 121.783 13.8644C122.593 14.7004 123.214 15.5871 123.645 16.5244C124.075 17.4617 124.316 18.1711 124.367 18.6524C124.443 19.1084 124.506 19.8177 124.557 20.7804C124.557 22.1737 124.253 23.6177 123.645 25.1124C123.062 26.5311 121.922 27.7851 120.225 28.8744C118.553 29.9384 116.691 30.4324 114.639 30.3564C111.776 30.3564 109.395 29.4697 107.495 27.6964C106.608 26.8097 106 25.9484 105.671 25.1124C105.063 23.6177 104.759 22.1737 104.759 20.7804ZM111.333 17.2844C110.497 18.1711 110.079 19.3364 110.079 20.7804C110.079 22.2244 110.497 23.3897 111.333 24.2764C112.169 25.1631 113.271 25.6064 114.639 25.6064C116.007 25.6064 117.109 25.1631 117.945 24.2764C118.806 23.3897 119.237 22.2244 119.237 20.7804C119.237 19.3364 118.806 18.1711 117.945 17.2844C117.109 16.3977 116.007 15.9544 114.639 15.9544C113.271 15.9544 112.169 16.3977 111.333 17.2844ZM127.136 20.7804C127.136 19.3364 127.44 17.8924 128.048 16.4484C128.63 15.0044 129.758 13.7504 131.43 12.6864C133.102 11.6224 134.964 11.1284 137.016 11.2044C140.005 11.2044 142.386 12.0911 144.16 13.8644C144.97 14.7004 145.591 15.5871 146.022 16.5244C146.452 17.4617 146.693 18.1711 146.744 18.6524C146.82 19.1084 146.883 19.8177 146.934 20.7804C146.934 22.1737 146.63 23.6177 146.022 25.1124C145.439 26.5311 144.299 27.7851 142.602 28.8744C140.93 29.9384 139.068 30.4324 137.016 30.3564C134.153 30.3564 131.772 29.4697 129.872 27.6964C128.985 26.8097 128.377 25.9484 128.048 25.1124C127.44 23.6177 127.136 22.1737 127.136 20.7804ZM133.71 17.2844C132.874 18.1711 132.456 19.3364 132.456 20.7804C132.456 22.2244 132.874 23.3897 133.71 24.2764C134.546 25.1631 135.648 25.6064 137.016 25.6064C138.384 25.6064 139.486 25.1631 140.322 24.2764C141.183 23.3897 141.614 22.2244 141.614 20.7804C141.614 19.3364 141.183 18.1711 140.322 17.2844C139.486 16.3977 138.384 15.9544 137.016 15.9544C135.648 15.9544 134.546 16.3977 133.71 17.2844ZM160.571 11.3184C161.356 11.3184 161.977 11.5464 162.433 12.0024C162.914 12.4584 163.155 13.0917 163.155 13.9024C163.155 14.7131 162.914 15.3464 162.433 15.8024C161.977 16.2584 161.356 16.4864 160.571 16.4864C158.848 16.4864 157.556 16.9171 156.695 17.7784C155.833 18.6144 155.403 19.9951 155.403 21.9204V27.3544C155.403 28.2157 155.175 28.8997 154.719 29.4064C154.263 29.8877 153.617 30.1284 152.781 30.1284C151.97 30.1284 151.337 29.8877 150.881 29.4064C150.425 28.8997 150.197 28.2157 150.197 27.3544V14.1684C150.197 13.3071 150.425 12.6357 150.881 12.1544C151.337 11.6731 151.97 11.4324 152.781 11.4324C154.478 11.4324 155.352 12.2937 155.403 14.0164H155.479C156.543 12.2177 158.24 11.3184 160.571 11.3184ZM176.28 11.2044C178.915 11.2044 181.03 12.0784 182.626 13.8264C183.31 14.6117 183.83 15.4477 184.184 16.3344C184.564 17.2211 184.78 17.8797 184.83 18.3104C184.906 18.7411 184.97 19.4377 185.02 20.4004C185.046 20.5777 185.058 20.7044 185.058 20.7804C185.058 22.2497 184.792 23.7191 184.26 25.1884C183.779 26.6071 182.791 27.8484 181.296 28.9124C179.802 29.9511 178.13 30.4324 176.28 30.3564C173.899 30.3564 172.024 29.5964 170.656 28.0764H170.58V34.4224C170.58 35.2837 170.352 35.9551 169.896 36.4364C169.44 36.9431 168.794 37.1964 167.958 37.1964C167.148 37.1964 166.514 36.9431 166.058 36.4364C165.602 35.9551 165.374 35.2837 165.374 34.4224V14.1684C165.374 13.3071 165.602 12.6357 166.058 12.1544C166.514 11.6731 167.148 11.4324 167.958 11.4324C169.402 11.4324 170.264 12.1291 170.542 13.5224H170.618C172.012 11.9771 173.899 11.2044 176.28 11.2044ZM171.872 24.2384C172.759 25.1504 173.874 25.6064 175.216 25.6064C176.559 25.6064 177.648 25.1631 178.484 24.2764C179.32 23.3897 179.738 22.2244 179.738 20.7804C179.738 19.3364 179.32 18.1711 178.484 17.2844C177.648 16.3977 176.559 15.9544 175.216 15.9544C173.874 15.9544 172.759 16.4104 171.872 17.3224C171.011 18.2344 170.58 19.3871 170.58 20.7804C170.58 22.1737 171.011 23.3264 171.872 24.2384ZM187.624 20.7804C187.624 19.3364 187.928 17.8924 188.536 16.4484C189.119 15.0044 190.246 13.7504 191.918 12.6864C193.59 11.6224 195.452 11.1284 197.504 11.2044C200.493 11.2044 202.875 12.0911 204.648 13.8644C205.459 14.7004 206.079 15.5871 206.51 16.5244C206.941 17.4617 207.181 18.1711 207.232 18.6524C207.308 19.1084 207.371 19.8177 207.422 20.7804C207.422 22.1737 207.118 23.6177 206.51 25.1124C205.927 26.5311 204.787 27.7851 203.09 28.8744C201.418 29.9384 199.556 30.4324 197.504 30.3564C194.641 30.3564 192.26 29.4697 190.36 27.6964C189.473 26.8097 188.865 25.9484 188.536 25.1124C187.928 23.6177 187.624 22.1737 187.624 20.7804ZM194.198 17.2844C193.362 18.1711 192.944 19.3364 192.944 20.7804C192.944 22.2244 193.362 23.3897 194.198 24.2764C195.034 25.1631 196.136 25.6064 197.504 25.6064C198.872 25.6064 199.974 25.1631 200.81 24.2764C201.671 23.3897 202.102 22.2244 202.102 20.7804C202.102 19.3364 201.671 18.1711 200.81 17.2844C199.974 16.3977 198.872 15.9544 197.504 15.9544C196.136 15.9544 195.034 16.3977 194.198 17.2844Z" fill="#4ABEFF"/>
<line x1="75.9966" y1="39.7842" x2="119.997" y2="39.7842" stroke="#4ABEFF"/>
<path fill-rule="evenodd" clip-rule="evenodd" d="M7.41888 42.9951C10.0616 42.6248 12.5987 41.2513 14.3425 38.8729C15.1533 37.7572 15.7303 36.4893 16.0391 35.1451C16.3479 33.801 16.382 32.4084 16.1394 31.0508C15.7695 28.831 16.245 26.5055 17.6725 24.5496C20.4208 20.7446 25.7588 19.9518 29.5108 22.7001C33.3162 25.448 34.1621 30.7865 31.3607 34.591C29.9337 36.547 27.8195 37.6566 25.5997 37.974C22.9575 38.2913 20.4208 39.7182 18.6765 42.0437C16.9322 44.4217 16.4037 47.223 16.8797 49.8648V49.9179C17.0701 51.049 17.0327 52.2067 16.7695 53.3232C16.5063 54.4396 16.0227 55.4922 15.3471 56.4191C12.5987 60.2241 7.26069 61.0169 3.45526 58.2685C-0.297135 55.4681 -1.14299 50.1822 1.65839 46.3772C2.33387 45.4471 3.19421 44.6666 4.18548 44.0846C5.17674 43.5027 6.27755 43.1317 7.41888 42.9951Z" fill="#4ABEFF"/>
<path fill-rule="evenodd" clip-rule="evenodd" d="M34.109 43.1534C35.7477 45.3206 38.2318 46.7997 41.1379 47.1179C44.0449 47.4343 46.7406 46.4829 48.8018 44.739C50.5456 43.3121 52.8184 42.5197 55.2495 42.7835C59.9003 43.3121 63.2828 47.4874 62.7538 52.1382C62.2783 56.79 58.0499 60.1715 53.3991 59.697C51.0211 59.4322 48.96 58.1639 47.586 56.4201C45.9473 54.2528 43.4633 52.7728 40.5563 52.4564C37.6493 52.1387 34.9544 53.0376 32.8933 54.7814C31.1485 56.2614 28.8762 57.0007 26.4451 56.79C21.7939 56.2614 18.4118 52.0852 18.9399 47.3822C19.4154 42.7314 23.6438 39.4015 28.295 39.877C29.4357 40.0003 30.5393 40.3543 31.5388 40.9176C32.5383 41.4808 33.4128 42.2415 34.109 43.1534Z" fill="#4ABEFF"/>
<path fill-rule="evenodd" clip-rule="evenodd" d="M38.8992 14.886C37.9063 17.4537 37.9571 20.3825 39.233 23.0557C40.5111 25.7287 42.7686 27.5435 45.3702 28.3889C47.5297 29.13 49.4246 30.6653 50.494 32.9002C52.5194 37.1886 50.7268 42.3295 46.4382 44.3546C42.1773 46.4262 37.0088 44.5873 34.9369 40.3277C33.8965 38.138 33.8897 35.6859 34.6591 33.5722C35.652 31.0046 35.602 28.0752 34.324 25.4022C33.0471 22.7285 30.8354 20.8865 28.2337 20.041C26.0281 19.3275 24.1792 17.7643 23.064 15.5576C21.0384 11.2688 22.832 6.12778 27.1651 4.07417C31.4252 2.00307 36.5491 3.86943 38.6205 8.12993C39.1227 9.1783 39.4064 10.3179 39.4543 11.4793C39.5022 12.6408 39.3133 13.7999 38.8992 14.886Z" fill="#4ABEFF"/>
</svg>
