<svg width="92" height="92" viewBox="0 0 92 92" fill="none" xmlns="http://www.w3.org/2000/svg">
<path d="M85.5312 11.5H81.9375V5.03125C81.9365 4.07842 81.5576 3.16489 80.8839 2.49114C80.2101 1.81738 79.2966 1.43845 78.3438 1.4375H13.6562C12.7034 1.43845 11.7899 1.81738 11.1161 2.49114C10.4424 3.16489 10.0635 4.07842 10.0625 5.03125V11.5H6.46875C5.13483 11.5015 3.85597 12.032 2.91275 12.9752C1.96952 13.9185 1.43897 15.1973 1.4375 16.5312V71.1562C1.43897 72.4902 1.96952 73.769 2.91275 74.7122C3.85597 75.6555 5.13483 76.186 6.46875 76.1875H34.031L31.979 83.375H25.875C25.4938 83.375 25.1281 83.5265 24.8585 83.796C24.5889 84.0656 24.4375 84.4313 24.4375 84.8125V89.125C24.4375 89.5062 24.5889 89.8719 24.8585 90.1415C25.1281 90.411 25.4938 90.5625 25.875 90.5625H66.125C66.5062 90.5625 66.8719 90.411 67.1415 90.1415C67.411 89.8719 67.5625 89.5062 67.5625 89.125V84.8125C67.5625 84.4313 67.411 84.0656 67.1415 83.796C66.8719 83.5265 66.5062 83.375 66.125 83.375H60.021L57.969 76.1875H85.5312C86.8652 76.186 88.144 75.6555 89.0872 74.7122C90.0305 73.769 90.561 72.4902 90.5625 71.1562V16.5312C90.561 15.1973 90.0305 13.9185 89.0872 12.9752C88.144 12.032 86.8652 11.5015 85.5312 11.5ZM12.9375 5.03125C12.9375 4.84063 13.0132 4.65781 13.148 4.52302C13.2828 4.38823 13.4656 4.3125 13.6562 4.3125H78.3438C78.5344 4.3125 78.7172 4.38823 78.852 4.52302C78.9868 4.65781 79.0625 4.84063 79.0625 5.03125V6.39148L46 27.0555L12.9375 6.39148V5.03125ZM62.6193 20.0585L79.0625 9.78039V46.7188C79.0625 46.9094 78.9868 47.0922 78.852 47.227C78.7172 47.3618 78.5344 47.4375 78.3438 47.4375H75.6574L62.6193 20.0585ZM72.4734 47.4375H19.5266L31.8334 21.5913L45.2381 29.9683C45.4664 30.1115 45.7305 30.1875 46 30.1875C46.2695 30.1875 46.5336 30.1115 46.7619 29.9683L60.1666 21.5913L72.4734 47.4375ZM12.9375 9.78039L29.3807 20.0585L16.3426 47.4375H13.6562C13.4656 47.4375 13.2828 47.3618 13.148 47.227C13.0132 47.0922 12.9375 46.9094 12.9375 46.7188V9.78039ZM64.6875 86.25V87.6875H27.3125V86.25H64.6875ZM34.969 83.375L37.021 76.1875H54.979L57.031 83.375H34.969ZM87.6875 71.1562C87.687 71.728 87.4597 72.2762 87.0554 72.6804C86.6512 73.0847 86.103 73.312 85.5312 73.3125H6.46875C5.89702 73.312 5.34885 73.0847 4.94458 72.6804C4.5403 72.2762 4.31298 71.728 4.3125 71.1562V67.5625H87.6875V71.1562ZM87.6875 64.6875H4.3125V16.5312C4.31298 15.9595 4.5403 15.4113 4.94458 15.0071C5.34885 14.6028 5.89702 14.3755 6.46875 14.375H10.0625V46.7188C10.0635 47.6716 10.4424 48.5851 11.1161 49.2589C11.7899 49.9326 12.7034 50.3116 13.6562 50.3125H50.3125H51.1211H51.4805C51.4805 50.3125 51.818 50.3125 52.1992 50.3125C52.5805 50.3125 52.6484 50.3125 52.6484 50.3125H53.1875H78.3438C79.2966 50.3116 80.2101 49.9326 80.8839 49.2589C81.5576 48.5851 81.9365 47.6716 81.9375 46.7188V14.375H85.5312C86.103 14.3755 86.6512 14.6028 87.0554 15.0071C87.4597 15.4113 87.687 15.9595 87.6875 16.5312V64.6875Z" fill="#4ABEFF"/>
</svg>
