<svg width="92" height="92" viewBox="0 0 92 92" fill="none" xmlns="http://www.w3.org/2000/svg">
<g clip-path="url(#clip0)">
<path d="M74.4946 -0.179691H57.8439C53.9603 -0.179691 50.801 2.97959 50.801 6.86253V23.5138C50.801 27.3968 53.9603 30.5561 57.8439 30.5561H74.4946C78.3775 30.5561 81.5368 27.3968 81.5368 23.5138V6.86253C81.5375 2.97959 78.3782 -0.179691 74.4946 -0.179691ZM76.1468 23.5138C76.1468 24.4242 75.4056 25.1654 74.4946 25.1654H57.8439C56.9329 25.1654 56.1924 24.4242 56.1924 23.5138V6.86253C56.1924 5.95216 56.9329 5.21094 57.8439 5.21094H74.4946C75.4056 5.21094 76.1468 5.95216 76.1468 6.86253V23.5138Z" fill="#4ABEFF"/>
<path d="M61.5963 37.2852C60.3027 37.2852 59.0835 37.606 58.0131 38.1724C56.6339 36.106 54.2818 34.7429 51.6166 34.7429C50.2402 34.7429 48.9473 35.1065 47.8285 35.7431C46.4282 33.8417 44.1743 32.6056 41.637 32.6056C40.8382 32.6056 40.0675 32.7278 39.3424 32.9552V30.5561H39.9826C43.8662 30.5561 47.0255 27.3968 47.0255 23.5131V6.86253C47.0255 2.97959 43.8662 -0.179691 39.9826 -0.179691H23.332C19.449 -0.179691 16.2897 2.97959 16.2897 6.86253V23.5138C16.2897 27.3968 19.449 30.5561 23.332 30.5561H23.9728V47.253C23.5559 46.8354 23.0877 46.4626 22.5739 46.1433C20.9181 45.115 18.9766 44.757 17.0731 45.1234C15.0256 45.2055 13.1887 46.0991 11.9955 47.6032C10.7419 49.1832 10.3067 51.3016 10.8001 53.4157L14.3427 68.5748C16.3627 81.2224 26.2287 90.6848 26.6492 91.0828C27.1496 91.5566 27.8129 91.8205 28.5022 91.8205H58.8175C59.7251 91.8205 60.5709 91.3636 61.0699 90.6055C66.4388 82.4381 69.278 72.9554 69.2787 63.182L69.2815 44.9704C69.2815 44.9704 69.2815 44.9704 69.2815 44.9697C69.2815 40.7323 65.8337 37.2852 61.5963 37.2852ZM29.6344 86.4299C27.462 84.1192 21.0606 76.6579 19.6519 67.6412C19.6413 67.5746 19.6287 67.5086 19.6133 67.444L16.049 52.1895C15.9304 51.6799 15.99 51.2405 16.2182 50.9534C16.4456 50.6664 16.8358 50.5161 17.3566 50.4663C17.6185 50.4417 17.7272 50.4109 17.9701 50.3961C18.5815 50.3589 19.2083 50.3989 19.7291 50.7225C20.2499 51.0461 20.6128 51.5529 20.7525 52.1495L23.8268 65.3074C24.0837 66.4059 24.9976 67.2285 26.1164 67.3689L26.3326 67.3956C27.0998 67.4917 27.8712 67.2538 28.451 66.7421C29.0307 66.2304 29.3627 65.4941 29.3627 64.7213V21.8847C29.3627 20.6192 30.3917 19.5902 31.6573 19.5902C32.9221 19.5902 33.9518 20.6192 33.9518 21.8847V47.1596C33.9518 48.6477 35.1584 49.855 36.6471 49.855C38.1359 49.855 39.3424 48.6477 39.3424 47.1596V40.2908C39.3424 39.0252 40.3714 37.9963 41.637 37.9963C42.9018 37.9963 43.9315 39.0252 43.9315 40.2908V47.4664C43.9315 48.9551 45.1381 50.1617 46.6268 50.1617C48.1155 50.1617 49.3221 48.9551 49.3221 47.4664V42.4281C49.3221 41.1633 50.3518 40.1336 51.6166 40.1336C52.8822 40.1336 53.9112 41.1633 53.9112 42.4281V49.3489C53.9112 50.8369 55.1178 52.0442 56.6065 52.0442C58.0952 52.0442 59.3018 50.8369 59.3018 49.3489V44.9704C59.3018 43.7049 60.3315 42.6752 61.5963 42.6752C62.8619 42.6752 63.8909 43.7049 63.8909 44.9697L63.8881 63.1813C63.8874 71.4196 61.6258 79.4262 57.3358 86.4299H29.6344ZM21.6804 23.5138V6.86253C21.6804 5.95216 22.4216 5.21094 23.332 5.21094H39.9826C40.8936 5.21094 41.6349 5.95216 41.6349 6.86253V23.5138C41.6349 24.4242 40.8936 25.1654 39.9826 25.1654H39.3424V21.884C39.3424 17.6466 35.8947 14.1988 31.6573 14.1988C27.4199 14.1988 23.9721 17.6466 23.9721 21.884V25.1654H23.332C22.4216 25.1654 21.6804 24.4242 21.6804 23.5138Z" fill="#4ABEFF"/>
</g>
<defs>
<clipPath id="clip0">
<rect width="92" height="92" fill="white"/>
</clipPath>
</defs>
</svg>
